<svg xmlns="http://www.w3.org/2000/svg" viewBox="0 0 256 256" role="img" aria-labelledby="title desc">
  <title id="title">Handy app icon</title>
  <desc id="desc">A red pocket tool on a dark rounded square.</desc>
  <defs>
    <linearGradient id="body" x1="44" y1="98" x2="211" y2="158" gradientUnits="userSpaceOnUse">
      <stop stop-color="#f34235"/>
      <stop offset="1" stop-color="#bb1717"/>
    </linearGradient>
    <linearGradient id="metal" x1="73" y1="47" x2="179" y2="132" gradientUnits="userSpaceOnUse">
      <stop stop-color="#f6f7fb"/>
      <stop offset="1" stop-color="#9aa0ad"/>
    </linearGradient>
  </defs>
  <rect width="256" height="256" rx="52" fill="#101225"/>
  <g transform="translate(128 128) rotate(-15)">
    <path d="M-38-22 0-88 16-80 4-22Z" fill="url(#metal)" stroke="#737987" stroke-width="2"/>
    <path d="M22-22 54-82 69-70 45-22Z" fill="url(#metal)" stroke="#737987" stroke-width="2"/>
    <path d="M-80-25h160a25 25 0 0 1 0 50H-80a25 25 0 0 1 0-50Z" fill="url(#body)" stroke="#861111" stroke-width="3"/>
    <path d="M-79-20h158c11 0 20 7 23 16H-102c3-9 12-16 23-16Z" fill="#fff" opacity=".13"/>
    <circle cx="-52" cy="0" r="8" fill="#a58a25" stroke="#5c450a" stroke-width="2"/>
    <circle cx="52" cy="0" r="8" fill="#a58a25" stroke="#5c450a" stroke-width="2"/>
    <circle cx="-13" cy="-2" r="9" fill="#fff8f4"/>
    <circle cx="13" cy="-2" r="9" fill="#fff8f4"/>
    <circle cx="-13" cy="-2" r="5" fill="#100c2a"/>
    <circle cx="13" cy="-2" r="5" fill="#100c2a"/>
    <path d="M-12 13c6 8 18 8 24 0" fill="none" stroke="#fff0e8" stroke-width="5" stroke-linecap="round"/>
  </g>
</svg>
